<?xml version="1.0" encoding="UTF-8" standalone="no"?>
<!DOCTYPE svg PUBLIC "-//W3C//DTD SVG 1.1//EN" "http://www.w3.org/Graphics/SVG/1.1/DTD/svg11.dtd">
<svg width="100%" height="100%" viewBox="0 0 50 50" version="1.1" xmlns="http://www.w3.org/2000/svg" xmlns:xlink="http://www.w3.org/1999/xlink" xml:space="preserve" xmlns:serif="http://www.serif.com/" style="fill-rule:evenodd;clip-rule:evenodd;stroke-linejoin:round;stroke-miterlimit:2;">
    <g id="Artboard1" transform="matrix(1.0693,0,0,1.0693,-1.0693,-2.1386)">
        <rect x="1" y="2" width="46.76" height="46.76" style="fill:none;"/>
        <clipPath id="_clip1">
            <rect x="1" y="2" width="46.76" height="46.76"/>
        </clipPath>
        <g clip-path="url(#_clip1)">
            <g transform="matrix(0.615257,0,0,0.615257,-257.451,2.14795)">
                <path d="M448.57,37.76L448.57,18.76L429.57,18.76L429.57,75.76L448.57,75.76L448.57,56.76L467.57,56.76L467.57,37.76L448.57,37.76Z" style="fill:url(#_Linear2);"/>
                <path d="M486.57,37.76L486.57,-0.24L448.57,-0.24L448.57,18.76L467.57,18.76L467.57,37.76L486.57,37.76Z" style="fill:url(#_Linear3);"/>
            </g>
        </g>
    </g>
    <defs>
        <linearGradient id="_Linear2" x1="0" y1="0" x2="1" y2="0" gradientUnits="userSpaceOnUse" gradientTransform="matrix(57,-76,76,57,429.57,75.7595)"><stop offset="0" style="stop-color:rgb(236,94,4);stop-opacity:1"/><stop offset="0.22" style="stop-color:rgb(230,79,59);stop-opacity:1"/><stop offset="1" style="stop-color:rgb(210,27,255);stop-opacity:1"/></linearGradient>
        <linearGradient id="_Linear3" x1="0" y1="0" x2="1" y2="0" gradientUnits="userSpaceOnUse" gradientTransform="matrix(57,-76,76,57,429.57,75.7595)"><stop offset="0" style="stop-color:rgb(236,94,4);stop-opacity:1"/><stop offset="0.22" style="stop-color:rgb(230,79,59);stop-opacity:1"/><stop offset="1" style="stop-color:rgb(210,27,255);stop-opacity:1"/></linearGradient>
    </defs>
</svg>
